<svg width="376" height="127" viewBox="0 0 376 127" fill="none" xmlns="http://www.w3.org/2000/svg">
<rect width="376" height="127" fill="#F5F5F5"/>
<path d="M231.3 61.2557L220.572 71.7364L192.142 75.381L184.767 82.5855L207.349 84.6539L187.229 104.31L181.069 100.763L175.227 106.471L189.841 123.467L218.528 95.4417L220.629 117.334L228.003 110.13L231.706 82.5681L238.736 75.6999L242.411 72.1097C245.479 69.1123 245.479 64.2531 242.411 61.2557C239.343 58.2583 234.368 58.2583 231.3 61.2557Z" fill="#AC860F"/>
<path d="M244.968 58.7568C243.928 57.7413 242.723 56.9471 241.413 56.393C241.336 25.2849 215.407 0 183.546 0C178.681 0 171.734 3.09761 166.271 17.8552C164.373 22.9803 162.898 28.9238 161.889 35.3767C155.284 36.3624 149.2 37.8031 143.954 39.657C140.082 41.0247 136.999 42.4882 134.548 43.9879C136.789 35.5766 141.284 27.8639 147.742 21.5553C149.154 20.1754 149.154 17.9383 147.742 16.5584C146.33 15.1785 144.039 15.1785 142.627 16.5584C131.697 27.236 125.677 41.4333 125.677 56.5336C125.677 70.2709 130.782 83.5147 140.052 93.8252C149.235 104.04 161.847 110.683 175.565 112.534C175.619 112.541 175.706 112.542 175.757 112.58L187.071 125.739C187.723 126.497 188.671 126.954 189.684 126.997C189.736 126.999 189.789 127 189.841 127C190.798 127 191.718 126.629 192.398 125.965L215.644 103.255L217.027 117.664C217.158 119.028 218.083 120.194 219.402 120.658C220.721 121.123 222.195 120.801 223.186 119.833L230.56 112.628C231.124 112.078 231.485 111.361 231.589 110.59L235.131 84.2179L244.968 74.6083C249.441 70.2377 249.442 63.1272 244.968 58.7568ZM191.672 71.8775C191.579 71.8894 191.487 71.9056 191.396 71.9242C188.89 72.078 186.263 72.1682 183.546 72.1682C178.107 72.1682 173.033 71.8942 168.359 71.4075C167.828 66.6495 167.542 61.6406 167.542 56.5331C167.542 51.2063 167.824 46.2379 168.325 41.6627C173.008 41.1738 178.094 40.898 183.547 40.898C188.999 40.898 194.085 41.1735 198.768 41.6627C199.268 46.2379 199.551 51.2065 199.551 56.5331C199.551 58.4845 201.17 60.0665 203.168 60.0665C205.166 60.0665 206.785 58.4847 206.785 56.5331C206.785 51.789 206.556 47.1349 206.12 42.6524C222.997 45.467 233.119 51.1483 234.1 55.7981C232.09 56.2803 230.245 57.2897 228.743 58.7564L218.884 68.3883L191.672 71.8775ZM178.512 98.2643L176.553 100.178C173.439 95.1498 170.95 87.5414 169.384 78.5904C173.813 79.0002 178.406 79.2182 183.086 79.2316L182.21 80.0871C181.219 81.0553 180.89 82.4959 181.365 83.7838C181.84 85.0721 183.034 85.9758 184.43 86.1035L199.352 87.4703L186.652 99.8766L182.906 97.7191C181.485 96.9008 179.678 97.1255 178.512 98.2643ZM232.527 43.9767C230.079 42.481 227.001 41.0215 223.139 39.6567C217.893 37.8031 211.809 36.3627 205.203 35.3764C204.194 28.9235 202.72 22.9801 200.822 17.8549C199.425 14.0821 197.931 11.075 196.4 8.68338C214.01 13.2013 227.902 26.7732 232.527 43.9767ZM183.546 7.06661C188.429 7.06661 194.72 17.115 197.755 34.4815C193.166 34.0551 188.403 33.8316 183.546 33.8316C178.689 33.8316 173.926 34.0553 169.338 34.4815C172.373 17.1152 178.663 7.06661 183.546 7.06661ZM160.974 42.6529C160.537 47.1354 160.308 51.7892 160.308 56.5336C160.308 61.2869 160.542 65.9435 160.985 70.416C143.201 67.4519 132.911 61.305 132.911 56.5336C132.911 51.7632 143.196 45.6178 160.974 42.6529ZM134.587 69.1039C137.032 70.5949 140.103 72.0499 143.954 73.4107C149.207 75.2668 155.3 76.709 161.916 77.695C163.655 88.7164 166.729 98.1427 170.741 104.403C153.001 99.8743 139.212 86.1556 134.587 69.1039ZM239.853 69.6109L229.148 80.0695C228.585 80.6197 228.223 81.3363 228.119 82.1082L224.577 108.48L223.511 109.521L222.128 95.1121C221.997 93.7488 221.072 92.5823 219.754 92.1179C218.435 91.6533 216.961 91.9753 215.97 92.9434L190.073 118.243L180.13 106.679L181.646 105.197L185.392 107.354C186.813 108.172 188.62 107.948 189.786 106.809L209.907 87.1525C210.898 86.1844 211.227 84.7437 210.752 83.4559C210.277 82.168 209.083 81.2639 207.687 81.1361L192.765 79.7694L193.706 78.8506C199.425 78.4252 205.2 77.6518 210.785 76.555L221.043 75.2398C221.833 75.1384 222.567 74.7854 223.13 74.235L233.858 63.7542C234.659 62.9719 235.723 62.5413 236.856 62.5413C237.988 62.5413 239.053 62.9719 239.853 63.7542C241.506 65.3688 241.506 67.9961 239.853 69.6109Z" fill="#8FA6D0"/>
<path d="M16.5 105L0.328125 75H4.625L19 102.344L33.375 75H37.6133L21.5 105H16.5ZM41.5 105V83.75H45.25V105H41.5ZM41.5 78.75V75H45.25V78.75H41.5ZM62.125 105.43C59.4297 105.43 57.2031 105.286 55.4453 105C53.7005 104.727 52.3984 104.115 51.5391 103.164C50.6927 102.214 50.2695 100.736 50.2695 98.7305C50.2695 96.6862 50.6667 95.1888 51.4609 94.2383C52.2682 93.2747 53.5378 92.6497 55.2695 92.3633C57.0143 92.0768 59.2995 91.9336 62.125 91.9336C64.4167 91.9336 66.3372 91.9857 67.8867 92.0898C69.4362 92.194 70.8229 92.3763 72.0469 92.6367C72.0208 90.9049 71.9036 89.5443 71.6953 88.5547C71.487 87.5521 71.0964 86.8099 70.5234 86.3281C69.9505 85.8464 69.1107 85.5404 68.0039 85.4102C66.9102 85.2669 65.4518 85.1953 63.6289 85.1953C61.5456 85.1953 59.9115 85.2409 58.7266 85.332C57.5547 85.4232 56.7018 85.5859 56.168 85.8203C55.6341 86.0547 55.2956 86.3932 55.1523 86.8359C55.0221 87.2786 54.957 87.8516 54.957 88.5547H51.207C51.207 87.1484 51.3958 86.0156 51.7734 85.1562C52.1641 84.2969 52.8216 83.6458 53.7461 83.2031C54.6706 82.7604 55.9336 82.4609 57.5352 82.3047C59.1497 82.1484 61.181 82.0703 63.6289 82.0703C66.2591 82.0703 68.375 82.2396 69.9766 82.5781C71.5911 82.9167 72.8151 83.5286 73.6484 84.4141C74.4948 85.2865 75.0612 86.5104 75.3477 88.0859C75.6471 89.6615 75.7969 91.6927 75.7969 94.1797V105H72.0469V103.457C71.6042 103.926 70.9922 104.303 70.2109 104.59C69.4297 104.876 68.388 105.085 67.0859 105.215C65.7969 105.358 64.1432 105.43 62.125 105.43ZM62.125 102.383C64.3516 102.383 66.1289 102.357 67.457 102.305C68.7852 102.253 69.7747 102.109 70.4258 101.875C71.0898 101.641 71.526 101.263 71.7344 100.742C71.9427 100.221 72.0469 99.4922 72.0469 98.5547V95.0977L62.125 94.9805C60.3672 94.9544 58.9479 94.9805 57.8672 95.0586C56.7995 95.1237 55.9857 95.2799 55.4258 95.5273C54.8659 95.7617 54.4883 96.1393 54.293 96.6602C54.1107 97.168 54.0195 97.8581 54.0195 98.7305C54.0195 99.5768 54.1107 100.247 54.293 100.742C54.4883 101.237 54.8659 101.602 55.4258 101.836C55.9857 102.07 56.7995 102.22 57.8672 102.285C58.9479 102.35 60.3672 102.383 62.125 102.383ZM83.8438 78.75V75H87.5938V78.75H83.8438ZM77.4961 112.5V109.375H80.3281C81.5911 109.375 82.4896 109.134 83.0234 108.652C83.5703 108.184 83.8438 107.122 83.8438 105.469V82.5H87.5938V105.469C87.5938 107.826 87.0534 109.583 85.9727 110.742C84.8919 111.914 83.0104 112.5 80.3281 112.5H77.4961ZM119.605 98.3203C119.605 100 119.352 101.322 118.844 102.285C118.349 103.249 117.587 103.952 116.559 104.395C115.53 104.837 114.215 105.117 112.613 105.234C111.025 105.365 109.13 105.43 106.93 105.43C104.417 105.43 102.281 105.299 100.523 105.039C98.7786 104.792 97.3659 104.277 96.2852 103.496C95.2174 102.702 94.4362 101.517 93.9414 99.9414C93.4596 98.3659 93.2188 96.263 93.2188 93.6328C93.2188 91.0807 93.4531 89.0365 93.9219 87.5C94.4036 85.9635 95.1784 84.8047 96.2461 84.0234C97.3138 83.2422 98.7135 82.7214 100.445 82.4609C102.19 82.2005 104.319 82.0703 106.832 82.0703C109.71 82.0703 112.092 82.2721 113.98 82.6758C115.868 83.0794 117.275 83.8477 118.199 84.9805C119.137 86.1133 119.605 87.7734 119.605 89.9609V94.7852H96.9883C97.0013 96.4518 97.1185 97.7865 97.3398 98.7891C97.5612 99.7917 98.0039 100.547 98.668 101.055C99.332 101.562 100.322 101.901 101.637 102.07C102.965 102.227 104.729 102.305 106.93 102.305C108.909 102.305 110.504 102.266 111.715 102.188C112.939 102.109 113.863 101.94 114.488 101.68C115.126 101.406 115.556 101.003 115.777 100.469C115.999 99.9349 116.109 99.2188 116.109 98.3203H119.605ZM106.832 85.1953C104.71 85.1953 102.997 85.2734 101.695 85.4297C100.406 85.5859 99.4232 85.8919 98.7461 86.3477C98.069 86.7904 97.6068 87.4544 97.3594 88.3398C97.125 89.2253 97.0013 90.3906 96.9883 91.8359H116.012V89.9609C116.012 89.0234 115.901 88.2487 115.68 87.6367C115.471 87.0117 115.055 86.5234 114.43 86.1719C113.805 85.8073 112.88 85.5534 111.656 85.4102C110.445 85.2669 108.837 85.1953 106.832 85.1953Z" fill="black"/>
<path d="M261.75 105V75H285.656C287.922 75 289.777 75.2148 291.223 75.6445C292.681 76.0612 293.755 76.8099 294.445 77.8906C295.148 78.9583 295.5 80.4753 295.5 82.4414C295.5 84.2122 295.09 85.6771 294.27 86.8359C293.449 87.9948 292.193 88.6328 290.5 88.75C292.714 88.9714 294.309 89.7656 295.285 91.1328C296.262 92.487 296.75 94.1927 296.75 96.25C296.75 98.0339 296.542 99.4987 296.125 100.645C295.721 101.79 295.038 102.682 294.074 103.32C293.111 103.945 291.802 104.382 290.148 104.629C288.508 104.876 286.457 105 283.996 105H261.75ZM265.5 87.5H282.98C284.999 87.5 286.652 87.4284 287.941 87.2852C289.23 87.1419 290.188 86.7188 290.812 86.0156C291.438 85.3125 291.75 84.1211 291.75 82.4414C291.75 81.1263 291.561 80.1628 291.184 79.5508C290.819 78.9388 290.194 78.5482 289.309 78.3789C288.423 78.2096 287.206 78.125 285.656 78.125H265.5V87.5ZM265.5 101.875H283.996C285.78 101.875 287.251 101.829 288.41 101.738C289.582 101.647 290.5 101.426 291.164 101.074C291.841 100.723 292.316 100.169 292.59 99.4141C292.863 98.6458 293 97.5911 293 96.25C293 94.8698 292.74 93.7956 292.219 93.0273C291.711 92.2591 290.995 91.7057 290.07 91.3672C289.159 91.0286 288.098 90.8203 286.887 90.7422C285.676 90.6641 284.374 90.625 282.98 90.625H265.5V101.875ZM327.512 98.3203C327.512 100 327.258 101.322 326.75 102.285C326.255 103.249 325.493 103.952 324.465 104.395C323.436 104.837 322.121 105.117 320.52 105.234C318.931 105.365 317.036 105.43 314.836 105.43C312.323 105.43 310.188 105.299 308.43 105.039C306.685 104.792 305.272 104.277 304.191 103.496C303.124 102.702 302.342 101.517 301.848 99.9414C301.366 98.3659 301.125 96.263 301.125 93.6328C301.125 91.0807 301.359 89.0365 301.828 87.5C302.31 85.9635 303.085 84.8047 304.152 84.0234C305.22 83.2422 306.62 82.7214 308.352 82.4609C310.096 82.2005 312.225 82.0703 314.738 82.0703C317.616 82.0703 319.999 82.2721 321.887 82.6758C323.775 83.0794 325.181 83.8477 326.105 84.9805C327.043 86.1133 327.512 87.7734 327.512 89.9609V94.7852H304.895C304.908 96.4518 305.025 97.7865 305.246 98.7891C305.467 99.7917 305.91 100.547 306.574 101.055C307.238 101.562 308.228 101.901 309.543 102.07C310.871 102.227 312.635 102.305 314.836 102.305C316.815 102.305 318.41 102.266 319.621 102.188C320.845 102.109 321.77 101.94 322.395 101.68C323.033 101.406 323.462 101.003 323.684 100.469C323.905 99.9349 324.016 99.2188 324.016 98.3203H327.512ZM314.738 85.1953C312.616 85.1953 310.904 85.2734 309.602 85.4297C308.312 85.5859 307.329 85.8919 306.652 86.3477C305.975 86.7904 305.513 87.4544 305.266 88.3398C305.031 89.2253 304.908 90.3906 304.895 91.8359H323.918V89.9609C323.918 89.0234 323.807 88.2487 323.586 87.6367C323.378 87.0117 322.961 86.5234 322.336 86.1719C321.711 85.8073 320.786 85.5534 319.562 85.4102C318.352 85.2669 316.743 85.1953 314.738 85.1953ZM332.453 105V82.5H336.203V85.293C336.763 84.5378 337.434 83.9062 338.215 83.3984C338.996 82.8906 339.992 82.513 341.203 82.2656C342.427 82.0052 343.99 81.875 345.891 81.875C348.247 81.875 350.168 82.194 351.652 82.832C353.137 83.4701 354.23 84.5703 354.934 86.1328C355.572 85.1432 356.34 84.3359 357.238 83.7109C358.137 83.0729 359.263 82.6107 360.617 82.3242C361.984 82.0247 363.664 81.875 365.656 81.875C368.026 81.875 369.953 82.2005 371.438 82.8516C372.922 83.4896 374.009 84.5833 374.699 86.1328C375.402 87.6823 375.754 89.8047 375.754 92.5V105H372.004V92.5C372.004 90.4427 371.789 88.8802 371.359 87.8125C370.93 86.7318 370.214 85.9961 369.211 85.6055C368.221 85.2018 366.88 85 365.188 85C361.867 85 359.497 85.4883 358.078 86.4648C356.672 87.4414 355.969 89.0365 355.969 91.25V91.2305C355.982 91.6341 355.988 92.0573 355.988 92.5V105H352.238V92.5C352.238 90.4427 352.023 88.8802 351.594 87.8125C351.164 86.7318 350.448 85.9961 349.445 85.6055C348.456 85.2018 347.115 85 345.422 85C342.102 85 339.732 85.4883 338.312 86.4648C336.906 87.4414 336.203 89.0365 336.203 91.25V105H332.453Z" fill="black"/>
</svg>
